<?xml version="1.0" encoding="utf-8"?>
<!-- Generator: Adobe Illustrator 27.2.0, SVG Export Plug-In . SVG Version: 6.00 Build 0)  -->
<svg version="1.1" id="Layer_1" xmlns="http://www.w3.org/2000/svg" xmlns:xlink="http://www.w3.org/1999/xlink" x="0px" y="0px"
	 viewBox="0 0 300 300" style="enable-background:new 0 0 300 300;" xml:space="preserve">
<style type="text/css">
	.st0{fill:#FFFFFF;}
	.st1{fill:#606060;}
	.st2{fill:#666666;}
	.st3{fill:#FFDA3E;}
	.st4{fill:#BF000A;}
	.st5{fill:#000099;}
	.st6{fill:#020044;}
</style>
<rect x="-0.3" y="-0.3" class="st0" width="300.5" height="300.5"/>
<g>
	<polygon class="st1" points="77.8,113.1 72.7,113.1 72.7,118.4 67.3,118.4 67.3,222.1 72.7,222.1 72.7,228 77.8,228 77.8,232.7 
		92.4,232.7 92.4,228 87.3,228 87.3,222.5 81.9,222.5 81.9,117.7 87.3,117.7 87.3,112.7 92.4,112.7 92.4,108.7 77.8,108.7 	"/>
	<polygon class="st1" points="103,228 103,222.3 97.4,222.3 97.4,217.2 92.7,217.2 92.7,123 97.4,123 97.4,117.7 103,117.7 
		103,112.7 237.4,112.7 237.4,117.7 243.1,117.7 243.1,123 247.9,123 247.9,217.2 243.1,217.2 243.1,222.3 237.4,222.3 237.4,228 
		206,228 206,228.1 202.6,228.1 202.6,232.7 263.5,232.7 263.5,228 268.4,228 268.4,227.8 268.4,222.1 273.4,222.1 273.4,180.6 
		269.1,180.6 269.1,185.9 258.2,185.9 258.2,180.6 252.9,180.6 252.9,169.7 258.2,169.7 258.2,165 269.1,165 269.1,169.7 
		273.4,169.7 273.4,149.5 269.1,149.5 269.1,154.8 258.2,154.8 258.2,149.5 252.9,149.5 252.9,138.5 258.2,138.5 258.2,133.8 
		269.1,133.8 269.1,138.5 273.4,138.5 273.4,118.4 268.4,118.4 268.4,113.1 263.5,113.1 263.5,108.7 98.1,108.7 98.1,113.1 
		93,113.1 93,118.4 87.6,118.4 87.6,222.1 93,222.1 93,228 98.1,228 98.1,232.7 124.2,232.7 124.2,228 	"/>
	<rect x="202.6" y="238.5" class="st2" width="49.5" height="3.6"/>
	<rect x="206" y="222.2" class="st2" width="31.3" height="0"/>
	<rect x="155.7" y="228" class="st2" width="25.3" height="4.8"/>
	<polygon class="st2" points="124.2,238.5 124.2,238.5 46.9,238.5 46.9,242.1 129.8,242.1 129.8,238.5 	"/>
	<rect x="139.4" y="238.5" class="st2" width="10.6" height="3.6"/>
	<rect x="139.4" y="228" class="st2" width="10.6" height="4.8"/>
	<rect x="242" y="201.7" class="st2" width="0.1" height="14.8"/>
	<polygon class="st2" points="97.8,216.5 97.9,216.5 97.9,201.8 97.8,201.9 	"/>
	<rect x="186.5" y="180.5" class="st2" width="4.6" height="0.1"/>
	<rect x="191.3" y="206.7" class="st2" width="5.9" height="0.2"/>
	<polygon class="st2" points="103.8,222.2 103.2,222.2 103.2,222.2 	"/>
	<rect x="150" y="217.1" class="st2" width="5.2" height="0"/>
	<rect x="185.5" y="228" class="st2" width="6.2" height="4.8"/>
	<rect x="258.6" y="170.7" class="st2" width="10.1" height="9.5"/>
	<rect x="88.5" y="98.5" class="st2" width="122.5" height="4.4"/>
	<rect x="258.6" y="139.6" class="st2" width="10.1" height="9.5"/>
	<polygon class="st2" points="191.6,238.5 185.5,238.5 181,238.5 155.7,238.5 155.7,242.1 191.6,242.1 	"/>
	<path d="M274.1,117.7v-5.1h-4.8v-5.3h-5.6v-4.4h-47v-5.3h-4.9v-4.9h-52.2v-4.4h5v-5.4h5.3v-5.2h5.3v-5.1h5.1v-5.4h5.3v-5.2h5.3
		v-5.1h5.1v-5.4h5.3v-5.2h5.3V41h-5.6v5.2h-5.3v5.4h-5.3v5.1h-5.1v5.2H180v5.4h-5.3v5.1h-5.1v5.2h-5.3v5.4H159v4.9h-17.2v-4.9h-5.3
		v-5.4h-5.3v-5.2h-5.1v-5.1h-5.3v-5.4h-5.3v-5.2h-5.1v-5.1h-5.3v-5.4H100V41h-5.6v5.6h5.3v5.2h5.3v5.4h5.1v5.1h5.3v5.2h5.3v5.4h5.1
		v5.1h5.3v5.2h5.3v5.4h4.7v4.4H87.4v4.9h-4.7v5.3H51.8v5.6H35.9v4.6h-4.6v5.3h-5.1v9.7h-5.4v94.3h5.4v5.5h5.1v5.7h5.1v4.8h4.7v5.1
		h5.2v4.3h5.3v9.8h15v-9.8H88v9.8h15v-9.8h26.7v-5.7H46.9v-3.6h77.2v-0.3v-5.5h-26V228H93v-5.9h-5.4V118.4H93v-5.3h5.1v-4.4h165.4
		v4.4h4.8v5.3h5.1v20.1h-4.4v-4.7h-10.9v4.7h-5.3v10.9h5.3v5.3h10.9v-5.3h4.4v20.2h-4.4V165h-10.9v4.7h-5.3v10.9h5.3v5.3h10.9v-5.3
		h4.4v41.4h-5.1v5.7v0.1h-4.8v4.8h-60.9v5.7h49.5v3.6h-49.5v5v0.8v0.2h-0.7v9.6h9.2v-9.8h21.4v9.8h15v-9.8h10.3v-5.7h0v-3.6h5.8
		v-4.8h5.6V228h4.8v-0.2v-5.3h5.1V117.7H274.1z M92.4,112.7h-5.1v5.1h-5.4v104.7h5.4v5.5h5.1v4.7H77.8V228h-5.1v-5.9h-5.4V118.4h5.4
		v-5.3h5.1v-4.4h14.5V112.7z M211,102.9H88.5v-4.4H211V102.9z M268.6,149h-10.1v-9.5h10.1V149z M268.6,180.2h-10.1v-9.5h10.1V180.2z
		"/>
	<rect x="185.5" y="232.7" width="6.2" height="5.7"/>
	<rect x="139.4" y="232.7" width="10.6" height="5.7"/>
	<rect x="155.7" y="232.7" width="25.3" height="5.7"/>
	<rect x="139.4" y="242.1" width="10.6" height="5.7"/>
	<rect x="155.7" y="242.1" width="35.9" height="5.7"/>
	<rect x="185.5" y="222.4" width="6.2" height="5.5"/>
	<polygon points="237.4,222.3 243.1,222.3 243.1,217.2 247.9,217.2 247.9,123 243.1,123 243.1,117.7 237.4,117.7 237.4,112.7 
		103,112.7 103,117.7 97.4,117.7 97.4,123 92.7,123 92.7,217.2 97.4,217.2 97.4,222.3 103,222.3 103,228 124.2,228 124.2,222.4 
		103.8,222.2 103.2,222.2 103.2,222.2 103.2,222 103.2,216.7 103.2,216.5 98.4,216.5 97.9,216.5 97.8,216.5 97.8,201.9 97.9,201.8 
		97.9,201.7 97.9,201.7 97.9,201.3 97.9,175.1 97.9,172.8 97.9,149.3 97.9,146.6 97.9,123.5 98.4,123.5 103.2,123.5 103.2,118.4 
		103.2,118.1 237.4,118.1 237.4,118.4 237.4,123.5 242.1,123.5 242.1,146.6 242.2,146.6 242.2,149.3 242.2,172.8 242.2,175.1 
		242.2,201.3 242.1,201.3 242.1,201.7 242.1,216.5 242,216.5 237.4,216.5 237.4,222 237.4,222.2 237.4,222.2 206,222.2 206,228 
		237.4,228 	"/>
	<rect x="155.7" y="222.4" width="25.3" height="5.5"/>
	<rect x="139.4" y="222.4" width="10.6" height="5.5"/>
	<polygon class="st3" points="237.4,222 237.4,216.5 242,216.5 242,201.7 216.6,201.7 216.6,201.8 216.6,211.9 211.2,211.9 
		211.2,217 206,217 206,222 206,222.2 237.4,222.2 	"/>
	<polygon class="st3" points="197.2,242.1 197.2,238.5 197.2,232.7 197.2,228 197.2,222.4 197.2,222.2 197.2,222.2 197.2,222 
		197.2,206.9 191.3,206.9 191.3,206.7 191.3,201.8 191.3,201.7 155.1,201.7 155.1,201.8 155.1,217.1 155.1,217.1 150,217.1 
		150,217.1 150,201.8 150,201.7 98.4,201.7 98.4,201.7 97.9,201.7 97.9,201.7 97.9,201.8 97.9,216.5 98.4,216.5 103.2,216.5 
		103.2,216.7 103.2,222 103.2,222.2 103.8,222.2 124.2,222.4 124.2,228 124.2,232.7 124.2,238.2 124.2,238.5 124.2,238.5 
		129.8,238.5 129.8,242.1 129.8,247.9 129.8,253.1 134.6,253.1 134.6,259 139.4,259 139.4,247.9 139.4,242.1 139.4,238.5 
		139.4,232.7 139.4,228 139.4,222.4 150,222.4 150,228 150,232.7 150,238.5 150,242.1 150,247.9 150,248.2 155.7,248.2 155.7,247.9 
		155.7,242.1 155.7,238.5 155.7,232.7 155.7,228 155.7,222.4 181,222.4 181,228 181,232.7 181,238.5 185.5,238.5 185.5,232.7 
		185.5,228 185.5,222.4 191.6,222.4 191.6,228 191.6,232.7 191.6,238.5 191.6,242.1 191.6,247.9 191.6,257.8 197.2,257.8 
		197.2,248.1 197.2,247.9 	"/>
	<polygon class="st4" points="202.6,247.9 202.6,247.1 202.6,242.1 202.6,238.5 202.6,232.7 202.6,228.1 206,228.1 206,228 
		206,222.2 206,222.2 206,222 206,217 211.2,217 211.2,211.9 216.6,211.9 216.6,201.8 216.6,201.7 242,201.7 242.1,201.7 
		242.1,201.3 242.2,201.3 242.2,175.1 242.1,175.1 191.1,175.1 191.1,180.5 191.1,180.5 186.5,180.5 186.5,180.5 186.5,175.1 
		118.7,175.1 118.7,191.2 118.7,191.2 113.6,191.2 113.6,191.2 113.6,175.1 98.4,175.1 97.9,175.1 97.9,201.3 97.9,201.7 
		98.4,201.7 98.4,201.7 150,201.7 150,201.8 150,217.1 155.1,217.1 155.1,201.8 155.1,201.7 191.3,201.7 191.3,201.8 191.3,206.7 
		197.2,206.7 197.2,206.9 197.2,222 197.2,222.2 197.2,222.2 197.2,222.4 197.2,228 197.2,232.7 197.2,238.5 197.2,242.1 
		197.2,247.9 197.2,248.1 201.9,248.1 202.6,248.1 	"/>
	<polygon class="st5" points="242.2,149.3 242.1,149.3 232.3,149.3 232.3,165.4 227.1,165.4 227.1,149.3 191.7,149.3 191.7,154.8 
		186.5,154.8 186.5,149.3 155.3,149.3 155.3,160.4 150.1,160.4 150.1,149.3 144.8,149.3 144.8,154.6 139.6,154.6 139.6,149.3 
		103.4,149.3 103.4,165.2 98.4,165.2 98.3,165.2 98.3,149.3 97.9,149.3 97.9,172.8 97.9,175.1 98.4,175.1 113.6,175.1 113.6,191.2 
		113.6,191.2 118.7,191.2 118.7,191.2 118.7,175.1 186.5,175.1 186.5,180.5 191.1,180.5 191.1,175.1 242.1,175.1 242.2,175.1 
		242.2,172.8 	"/>
	<polygon class="st6" points="98.3,165.2 98.4,165.2 103.4,165.2 103.4,149.3 139.6,149.3 139.6,154.6 144.8,154.6 144.8,149.3 
		150.1,149.3 150.1,160.4 155.3,160.4 155.3,149.3 186.5,149.3 186.5,154.8 191.7,154.8 191.7,149.3 227.1,149.3 227.1,165.4 
		232.3,165.4 232.3,149.3 242.1,149.3 242.2,149.3 242.2,146.6 242.1,146.6 242.1,123.5 237.4,123.5 237.4,118.4 237.4,118.1 
		103.2,118.1 103.2,118.4 103.2,123.5 98.4,123.5 97.9,123.5 97.9,146.6 97.9,149.3 98.3,149.3 	"/>
</g>
</svg>
